<?xml version="1.0" encoding="UTF-8" standalone="no"?>
<!DOCTYPE svg PUBLIC "-//W3C//DTD SVG 1.1//EN" "http://www.w3.org/Graphics/SVG/1.1/DTD/svg11.dtd">
<svg width="100%" height="100%" viewBox="0 0 64 64" version="1.1" xmlns="http://www.w3.org/2000/svg" xmlns:xlink="http://www.w3.org/1999/xlink" xml:space="preserve" xmlns:serif="http://www.serif.com/" style="fill-rule:evenodd;clip-rule:evenodd;stroke-linejoin:round;stroke-miterlimit:2;">
    <path d="M64,0L64,64L0,64L0,0L64,0ZM32.015,10.561L16.032,10.561L16.032,53.439L32.671,53.439C34.858,53.439 36.885,53.206 38.754,52.739C40.623,52.272 42.238,51.526 43.599,50.502C44.961,49.479 46.03,48.137 46.805,46.477C47.58,44.817 47.968,42.794 47.968,40.409C47.968,38.997 47.744,37.71 47.297,36.547C46.85,35.384 46.268,34.366 45.553,33.491C44.837,32.616 44.027,31.901 43.122,31.344C42.218,30.787 41.298,30.4 40.364,30.181L40.364,29.883C41.199,29.465 41.944,28.968 42.6,28.392C43.256,27.815 43.818,27.145 44.285,26.379C44.752,25.614 45.11,24.744 45.359,23.77C45.607,22.796 45.731,21.693 45.731,20.46C45.731,18.691 45.369,17.18 44.643,15.928C43.917,14.675 42.933,13.652 41.691,12.857C40.449,12.061 38.992,11.48 37.323,11.112C35.653,10.744 33.884,10.561 32.015,10.561ZM29.212,27.378L24.202,27.378L24.202,16.375L29.212,16.375C30.703,16.375 31.975,16.475 33.029,16.673C34.082,16.872 34.942,17.19 35.608,17.627C36.274,18.065 36.766,18.631 37.084,19.327C37.402,20.023 37.561,20.878 37.561,21.892C37.561,22.885 37.402,23.73 37.084,24.426C36.766,25.122 36.274,25.688 35.608,26.126C34.942,26.563 34.082,26.881 33.029,27.08C31.975,27.279 30.703,27.378 29.212,27.378ZM30.285,47.625L24.202,47.625L24.202,33.193L30.285,33.193C33.426,33.193 35.797,33.749 37.397,34.863C38.997,35.976 39.798,37.825 39.798,40.409C39.798,42.993 38.997,44.842 37.397,45.955C35.797,47.068 33.426,47.625 30.285,47.625Z"/>
</svg>
