<?xml version="1.0" encoding="UTF-8" standalone="no"?>
<!DOCTYPE svg PUBLIC "-//W3C//DTD SVG 1.1//EN" "http://www.w3.org/Graphics/SVG/1.1/DTD/svg11.dtd">
<svg width="100%" height="100%" viewBox="0 0 64 64" version="1.1" xmlns="http://www.w3.org/2000/svg" xmlns:xlink="http://www.w3.org/1999/xlink" xml:space="preserve" xmlns:serif="http://www.serif.com/" style="fill-rule:evenodd;clip-rule:evenodd;stroke-linejoin:round;stroke-miterlimit:2;">
    <path d="M64,0L64,64L0,64L0,0L64,0ZM7.25,6.755L7.25,57.245L18.978,57.245L18.978,53.291L12.34,53.291L12.34,10.709L18.978,10.709L18.978,6.755L7.25,6.755ZM56.75,6.755L45.022,6.755L45.022,10.709L51.66,10.709L51.66,53.291L45.022,53.291L45.022,57.245L56.75,57.245L56.75,6.755ZM32.012,14.826L18.978,14.826L18.978,49.779L32.547,49.779C34.33,49.779 35.984,49.589 37.508,49.208C39.032,48.827 40.349,48.22 41.459,47.385C42.57,46.551 43.441,45.457 44.073,44.104C44.705,42.751 45.022,41.102 45.022,39.157C45.022,38.007 44.839,36.957 44.474,36.009C44.11,35.061 43.636,34.231 43.052,33.518C42.468,32.805 41.808,32.221 41.07,31.768C40.333,31.314 39.583,30.998 38.821,30.82L38.821,30.577C39.502,30.236 40.11,29.831 40.645,29.361C41.18,28.891 41.637,28.344 42.018,27.721C42.399,27.097 42.691,26.388 42.894,25.594C43.096,24.8 43.198,23.9 43.198,22.896C43.198,21.453 42.902,20.222 42.31,19.201C41.719,18.18 40.916,17.345 39.903,16.697C38.89,16.049 37.702,15.575 36.341,15.275C34.979,14.976 33.536,14.826 32.012,14.826ZM30.602,45.039L25.641,45.039L25.641,33.275L30.602,33.275C33.163,33.275 35.096,33.729 36.401,34.636C37.706,35.543 38.359,37.05 38.359,39.157C38.359,41.264 37.706,42.771 36.401,43.678C35.096,44.586 33.163,45.039 30.602,45.039ZM29.726,28.535L25.641,28.535L25.641,19.566L29.726,19.566C30.942,19.566 31.98,19.647 32.839,19.809C33.698,19.971 34.399,20.23 34.942,20.586C35.485,20.943 35.887,21.405 36.146,21.972C36.405,22.539 36.535,23.236 36.535,24.062C36.535,24.873 36.405,25.561 36.146,26.128C35.887,26.696 35.485,27.157 34.942,27.514C34.399,27.87 33.698,28.13 32.839,28.292C31.98,28.454 30.942,28.535 29.726,28.535Z"/>
</svg>
