<?xml version="1.0" encoding="UTF-8" standalone="no"?>
<!DOCTYPE svg PUBLIC "-//W3C//DTD SVG 1.1//EN" "http://www.w3.org/Graphics/SVG/1.1/DTD/svg11.dtd">
<svg width="100%" height="100%" viewBox="0 0 64 64" version="1.1" xmlns="http://www.w3.org/2000/svg" xmlns:xlink="http://www.w3.org/1999/xlink" xml:space="preserve" xmlns:serif="http://www.serif.com/" style="fill-rule:evenodd;clip-rule:evenodd;stroke-linejoin:round;stroke-miterlimit:2;">
    <path d="M64,0L64,64L0,64L0,0L64,0ZM26.648,10.561L15.018,10.561L15.018,53.439L26.648,53.439C28.993,53.439 31.16,53.305 33.148,53.037C35.136,52.769 36.965,52.316 38.635,51.68C40.563,50.925 42.188,49.926 43.51,48.683C44.832,47.441 45.9,45.98 46.715,44.3C47.53,42.62 48.112,40.737 48.46,38.65C48.808,36.562 48.982,34.306 48.982,31.881C48.982,29.455 48.813,27.204 48.475,25.127C48.137,23.049 47.57,21.176 46.775,19.506C45.98,17.836 44.916,16.39 43.584,15.167C42.253,13.945 40.603,12.966 38.635,12.23C36.965,11.614 35.136,11.182 33.148,10.933C31.16,10.685 28.993,10.561 26.648,10.561ZM24.56,47.386L23.368,47.386L23.368,16.614L26.051,16.614C28.914,16.614 31.279,16.862 33.148,17.359C35.017,17.856 36.498,18.696 37.591,19.879C38.684,21.062 39.445,22.647 39.872,24.635C40.299,26.623 40.513,29.108 40.513,32.089C40.513,35.071 40.295,37.541 39.857,39.499C39.42,41.457 38.615,43.023 37.442,44.196C36.269,45.369 34.649,46.194 32.581,46.671C30.514,47.148 27.84,47.386 24.56,47.386Z"/>
</svg>
