<?xml version="1.0" encoding="UTF-8" standalone="no"?>
<!DOCTYPE svg PUBLIC "-//W3C//DTD SVG 1.1//EN" "http://www.w3.org/Graphics/SVG/1.1/DTD/svg11.dtd">
<svg width="100%" height="100%" viewBox="0 0 64 64" version="1.1" xmlns="http://www.w3.org/2000/svg" xmlns:xlink="http://www.w3.org/1999/xlink" xml:space="preserve" xmlns:serif="http://www.serif.com/" style="fill-rule:evenodd;clip-rule:evenodd;stroke-linejoin:round;stroke-miterlimit:2;">
    <path d="M64,0L64,64L0,64L0,0L64,0ZM56.75,6.755L45.022,6.755L45.022,10.709L51.66,10.709L51.66,53.291L45.022,53.291L45.022,57.245L56.75,57.245L56.75,6.755ZM26.488,11.367L26.488,16.754L29.183,16.754L29.183,47.851L26.488,47.851L26.488,53.238L37.512,53.238L37.512,47.851L34.817,47.851L34.817,16.754L37.512,16.754L37.512,11.367L26.488,11.367ZM7.25,6.755L7.25,57.245L18.978,57.245L18.978,53.291L12.34,53.291L12.34,10.709L18.978,10.709L18.978,6.755L7.25,6.755Z"/>
</svg>
