<?xml version="1.0" encoding="UTF-8" standalone="no"?>
<!DOCTYPE svg PUBLIC "-//W3C//DTD SVG 1.1//EN" "http://www.w3.org/Graphics/SVG/1.1/DTD/svg11.dtd">
<svg width="100%" height="100%" viewBox="0 0 64 64" version="1.1" xmlns="http://www.w3.org/2000/svg" xmlns:xlink="http://www.w3.org/1999/xlink" xml:space="preserve" xmlns:serif="http://www.serif.com/" style="fill-rule:evenodd;clip-rule:evenodd;stroke-linejoin:round;stroke-miterlimit:2;">
    <path d="M64,0L64,64L-0,64L-0,0L64,0ZM23.775,13.266L23.775,21.556L57.059,21.556L57.059,13.266L23.775,13.266ZM23.775,42.444L23.775,50.734L57.059,50.734L57.059,42.444L23.775,42.444ZM15.565,36.145L15.565,27.855L6.941,27.855L6.941,36.145L15.565,36.145ZM15.565,21.556L15.565,13.266L6.855,13.266L6.855,21.556L15.565,21.556ZM15.565,50.734L15.565,42.444L6.855,42.444L6.855,50.734L15.565,50.734ZM23.775,27.855L23.775,36.145L57.145,36.145L57.145,27.855L23.775,27.855Z"/>
</svg>
