<?xml version="1.0" encoding="UTF-8" standalone="no"?>
<!DOCTYPE svg PUBLIC "-//W3C//DTD SVG 1.1//EN" "http://www.w3.org/Graphics/SVG/1.1/DTD/svg11.dtd">
<svg width="100%" height="100%" viewBox="0 0 64 64" version="1.1" xmlns="http://www.w3.org/2000/svg" xmlns:xlink="http://www.w3.org/1999/xlink" xml:space="preserve" xmlns:serif="http://www.serif.com/" style="fill-rule:evenodd;clip-rule:evenodd;stroke-linejoin:round;stroke-miterlimit:2;">
    <path d="M64,0L64,64L0,64L0,0L64,0ZM18.269,46.03L16.062,51.278C17.255,51.814 18.492,52.267 19.774,52.634C21.057,53.002 22.324,53.295 23.576,53.514C24.829,53.733 26.026,53.892 27.169,53.991C28.312,54.091 29.341,54.15 30.256,54.17C31.19,54.17 32.273,54.125 33.506,54.036C34.738,53.946 36.011,53.753 37.323,53.454C38.635,53.156 39.927,52.729 41.199,52.172C42.471,51.616 43.604,50.865 44.598,49.921C45.592,48.977 46.397,47.809 47.014,46.417C47.63,45.026 47.938,43.356 47.938,41.408C47.938,39.201 47.62,37.342 46.984,35.832C46.348,34.321 45.468,33.054 44.345,32.03C43.222,31.006 41.89,30.171 40.349,29.525C38.809,28.879 37.124,28.317 35.295,27.84C33.625,27.403 32.129,27.03 30.807,26.722C29.485,26.414 28.367,26.041 27.453,25.604C26.538,25.167 25.838,24.6 25.35,23.904C24.863,23.209 24.62,22.244 24.62,21.012C24.62,20.058 24.819,19.243 25.216,18.567C25.614,17.891 26.175,17.344 26.901,16.927C27.627,16.509 28.486,16.206 29.48,16.017C30.474,15.828 31.568,15.734 32.76,15.734C34.649,15.734 36.453,15.913 38.172,16.271C39.892,16.629 41.547,17.096 43.137,17.672L45.254,12.484C44.062,11.967 42.824,11.54 41.542,11.202C40.26,10.864 39.017,10.59 37.815,10.382C36.612,10.173 35.479,10.029 34.415,9.949C33.352,9.87 32.442,9.83 31.687,9.83C30.613,9.83 29.48,9.909 28.288,10.068C27.095,10.228 25.927,10.486 24.784,10.844C23.641,11.202 22.548,11.669 21.504,12.245C20.46,12.822 19.541,13.522 18.746,14.347C17.951,15.172 17.319,16.142 16.852,17.255C16.385,18.368 16.151,19.63 16.151,21.042C16.151,23.149 16.45,24.918 17.046,26.349C17.642,27.781 18.477,28.983 19.551,29.957C20.624,30.932 21.921,31.727 23.442,32.343C24.963,32.959 26.648,33.506 28.496,33.983C30.146,34.4 31.647,34.778 32.999,35.116C34.351,35.454 35.504,35.871 36.458,36.368C37.412,36.865 38.153,37.502 38.679,38.277C39.206,39.052 39.47,40.096 39.47,41.408C39.47,42.62 39.226,43.659 38.739,44.524C38.252,45.389 37.576,46.099 36.711,46.656C35.847,47.212 34.818,47.62 33.625,47.878C32.432,48.137 31.12,48.266 29.689,48.266C27.482,48.266 25.44,48.052 23.561,47.625C21.683,47.197 19.919,46.666 18.269,46.03Z"/>
</svg>
